<svg width="96" height="96" viewBox="0 0 96 96" fill="none" xmlns="http://www.w3.org/2000/svg">
  <!-- Calendario base -->
  <rect x="20" y="24" width="56" height="52" rx="6" fill="#85BFA1"/>
  <rect x="20" y="24" width="56" height="12" fill="#2F5C3F"/>
  <circle cx="32" cy="30" r="2" fill="#EEF5ED"/>
  <circle cx="64" cy="30" r="2" fill="#EEF5ED"/>

  <!-- Linee giorno -->
  <g stroke="#2F5C3F" stroke-width="2" stroke-linecap="round">
    <line x1="32" y1="44" x2="32" y2="44"/>
    <line x1="40" y1="44" x2="40" y2="44"/>
    <line x1="48" y1="44" x2="48" y2="44"/>
    <line x1="56" y1="44" x2="56" y2="44"/>

    <line x1="32" y1="52" x2="32" y2="52"/>
    <line x1="40" y1="52" x2="40" y2="52"/>
    <line x1="48" y1="52" x2="48" y2="52"/>
    <line x1="56" y1="52" x2="56" y2="52"/>
  </g>

  <!-- Piantina centrale (produzione agricola) -->
  <path d="M48 66C48 64 48 62 48 60C48 56 50 54 52 52C50 52 48 52 46 54C44 56 44 58 44 60C44 62 44 64 44 66H48Z" fill="#2F5C3F"/>
  <path d="M48 60C50 59 54 58 56 56C58 54 56 52 54 52C52 52 50 54 48 56V60Z" fill="#2F5C3F"/>
</svg>